<?xml version="1.0" encoding="utf-8"?>
<!-- Generator: Adobe Illustrator 18.0.0, SVG Export Plug-In . SVG Version: 6.00 Build 0)  -->
<!DOCTYPE svg PUBLIC "-//W3C//DTD SVG 1.1//EN" "http://www.w3.org/Graphics/SVG/1.1/DTD/svg11.dtd">
<svg version="1.1" id="Layer_1" xmlns="http://www.w3.org/2000/svg" xmlns:xlink="http://www.w3.org/1999/xlink" x="0px" y="0px"
	 viewBox="-84.5 -87.2 200 206.5" enable-background="new -84.5 -87.2 200 206.5" xml:space="preserve">
<path d="M-0.6-87.2c-40,0-68.5,31.7-79.4,69.8c1.9,0.6,3.3,1.2,5.2,1.2c1.9,0,3.2,1.3,3.2,3.2s-1.3,3.2-3.2,3.2
	c-3.2,0-5.7,1.3-7.7,3.8c-1.3,7.1-2,14.9-2,22c0,9.7,0.7,19.4,2,28.4c1.9,2.6,4.4,3.8,7.7,3.8c1.9,0,3.2,1.3,3.2,3.2
	c0,1.9-1.3,3.2-3.2,3.2c-1.9,0-4,0.6-5.2,1.2c8.4,35.5,28.5,63.3,66.5,63.3c14.2,0,25.8-11.6,25.8-25.8V32.1c0-5.2-4.5-9.7-9.7-9.7
	h-19.4c-1.9,0-3.2-1.3-3.2-3.2s1.3-3.2,3.2-3.2H2.6c5.2,0,9.7-4.5,9.7-9.7v-38.7c0-5.2-4.5-9.7-9.7-9.7c-1.9,0-3.2-1.3-3.2-3.2
	c0-1.9,1.3-3.2,3.2-3.2c5.2,0,9.7-4.5,9.7-9.7v-16.1C12.3-81.4,6.5-87.2-0.6-87.2L-0.6-87.2z M31.6-87.2c-7.1,0-12.9,5.8-12.9,12.9
	v16.1c0,5.2,4.5,9.7,9.7,9.7c1.9,0,3.2,1.3,3.2,3.2s-1.3,3.2-3.2,3.2c-5.2,0-9.7,4.5-9.7,9.7V6.3c0,5.2,4.5,9.7,9.7,9.7h19.4
	c1.9,0,3.2,1.3,3.2,3.2s-1.3,3.2-3.2,3.2H28.4c-5.2,0-9.7,4.5-9.7,9.7v61.3c0,14.2,11.6,25.8,25.8,25.8c38.1,0,58.1-27.8,66.5-63.3
	c-1.3-0.6-3.3-1.2-5.2-1.2c-1.9,0-3.2-1.3-3.2-3.2c0-1.9,1.3-3.2,3.2-3.2c3.2,0,5.7-1.3,7.7-3.8c1.3-9,2-18.7,2-28.4
	c0-7.1-0.7-14.9-2-22c-1.9-2.6-4.4-3.8-7.7-3.8c-1.9,0-3.2-1.3-3.2-3.2s1.3-3.2,3.2-3.2s3.3-0.6,5.2-1.2
	C100.1-55.5,71.6-87.2,31.6-87.2L31.6-87.2z M-3.9-74.3c1.9,0,3.2,1.3,3.2,3.2c0,5.2-4.5,9.7-9.7,9.7c-9,0-16.1,7.1-16.1,16.1
	s7.1,16.1,16.1,16.1c1.9,0,3.2,1.3,3.2,3.2s-1.3,3.2-3.2,3.2c-12.3,0-22.6-10.3-22.6-22.6s10.3-22.6,22.6-22.6
	c1.9,0,3.2-1.3,3.2-3.2C-7.1-73-5.8-74.3-3.9-74.3z M34.9-74.3c1.9,0,3.2,1.3,3.2,3.2c0,1.9,1.3,3.2,3.2,3.2
	c12.3,0,22.6,10.3,22.6,22.6S53.6-22.7,41.3-22.7c-1.9,0-3.2-1.3-3.2-3.2s1.3-3.2,3.2-3.2c9,0,16.1-7.1,16.1-16.1
	s-7.1-16.1-16.1-16.1c-5.2,0-9.7-4.5-9.7-9.7C31.6-73,32.9-74.3,34.9-74.3z M2.6-16.3c1.9,0,3.2,1.3,3.2,3.2c0,9-7.1,16.1-16.1,16.1
	h-19.4c-9,0-16.1,7.1-16.1,16.1s7.1,16.1,16.1,16.1c1.9,0,3.2,1.3,3.2,3.2c0,1.9-1.3,3.2-3.2,3.2c-12.3,0-22.6-10.3-22.6-22.6
	S-41.9-3.4-29.7-3.4h19.4c5.2,0,9.7-4.5,9.7-9.7C-0.6-15,0.7-16.3,2.6-16.3z M28.4-16.3c1.9,0,3.2,1.3,3.2,3.2
	c0,5.2,4.5,9.7,9.7,9.7h19.4C72.9-3.4,83.2,7,83.2,19.2S72.9,41.8,60.7,41.8c-1.9,0-3.2-1.3-3.2-3.2c0-1.9,1.3-3.2,3.2-3.2
	c9,0,16.1-7.1,16.1-16.1S69.7,3.1,60.7,3.1H41.3c-9,0-16.1-7.1-16.1-16.1C25.2-15,26.5-16.3,28.4-16.3z M-10.3,35.4
	c9,0,16.1,7.1,16.1,16.1s-7.1,16.1-16.1,16.1H-20c-3.9,0-6.5,2.6-6.5,6.5v9.7c0,1.9-1.3,3.2-3.2,3.2s-3.2-1.3-3.2-3.2v-9.7
	c0-7.1,5.8-12.9,12.9-12.9h9.7c5.2,0,9.7-4.5,9.7-9.7s-4.5-9.7-9.7-9.7c-1.9,0-3.2-1.3-3.2-3.2C-13.5,36.6-12.2,35.4-10.3,35.4z
	 M41.3,35.4c1.9,0,3.2,1.3,3.2,3.2c0,1.9-1.3,3.2-3.2,3.2c-5.2,0-9.7,4.5-9.7,9.7s4.5,9.7,9.7,9.7H51c7.1,0,12.9,5.8,12.9,12.9v9.7
	c0,1.9-1.3,3.2-3.2,3.2c-1.9,0-3.2-1.3-3.2-3.2v-9.7c0-3.9-2.6-6.5-6.5-6.5h-9.7c-9,0-16.1-7.1-16.1-16.1S32.3,35.4,41.3,35.4z
	 M-10.3,80.5c5.2,0,9.7,4.5,9.7,9.7c0,1.9-1.3,3.2-3.2,3.2s-3.2-1.3-3.2-3.2c0-1.9-1.3-3.2-3.2-3.2s-3.2,1.3-3.2,3.2
	c0,9-7.1,16.1-16.1,16.1s-16.1-7.1-16.1-16.1c0-1.9,1.3-3.2,3.2-3.2s3.2,1.3,3.2,3.2c0,5.2,4.5,9.7,9.7,9.7s9.7-4.5,9.7-9.7
	C-20,85-15.5,80.5-10.3,80.5z M41.3,80.5c5.2,0,9.7,4.5,9.7,9.7c0,5.2,4.5,9.7,9.7,9.7s9.7-4.5,9.7-9.7c0-1.9,1.3-3.2,3.2-3.2
	c1.9,0,3.2,1.3,3.2,3.2c0,9-7.1,16.1-16.1,16.1s-16.1-7.1-16.1-16.1c0-1.9-1.3-3.2-3.2-3.2c-1.9,0-3.2,1.3-3.2,3.2
	c0,1.9-1.3,3.2-3.2,3.2c-1.9,0-3.2-1.3-3.2-3.2C31.6,85,36.1,80.5,41.3,80.5z"/>
</svg>
